<svg width="22" height="22" viewBox="0 0 22 22" fill="none" xmlns="http://www.w3.org/2000/svg">
<mask id="path-1-inside-1" fill="white">
<path d="M18 12C18 13.5823 17.5308 15.129 16.6518 16.4446C15.7727 17.7602 14.5233 18.7855 13.0615 19.391C11.5997 19.9965 9.99113 20.155 8.43928 19.8463C6.88743 19.5376 5.46197 18.7757 4.34315 17.6569C3.22433 16.538 2.4624 15.1126 2.15372 13.5607C1.84504 12.0089 2.00346 10.4003 2.60896 8.93853C3.21446 7.47672 4.23985 6.22729 5.55544 5.34824C6.87103 4.46919 8.41775 4 10 4V12H18Z"/>
</mask>
<path d="M18 12C18 13.5823 17.5308 15.129 16.6518 16.4446C15.7727 17.7602 14.5233 18.7855 13.0615 19.391C11.5997 19.9965 9.99113 20.155 8.43928 19.8463C6.88743 19.5376 5.46197 18.7757 4.34315 17.6569C3.22433 16.538 2.4624 15.1126 2.15372 13.5607C1.84504 12.0089 2.00346 10.4003 2.60896 8.93853C3.21446 7.47672 4.23985 6.22729 5.55544 5.34824C6.87103 4.46919 8.41775 4 10 4V12H18Z" stroke="#030419" stroke-opacity="0.6" stroke-width="2" mask="url(#path-1-inside-1)"/>
<mask id="path-2-inside-2" fill="white">
<path d="M12 2C13.0506 2 14.0909 2.20693 15.0615 2.60896C16.0321 3.011 16.914 3.60028 17.6569 4.34315C18.3997 5.08602 18.989 5.96793 19.391 6.93853C19.7931 7.90914 20 8.94943 20 10L12 10V2Z"/>
</mask>
<path d="M12 2C13.0506 2 14.0909 2.20693 15.0615 2.60896C16.0321 3.011 16.914 3.60028 17.6569 4.34315C18.3997 5.08602 18.989 5.96793 19.391 6.93853C19.7931 7.90914 20 8.94943 20 10L12 10V2Z" stroke="#030419" stroke-opacity="0.6" stroke-width="2" mask="url(#path-2-inside-2)"/>
</svg>
